# xmcd
#
# Track frame offsets:
#	150
#	3062
#	9859
#	22662
#	34606
#	47988
#	61981
#	75866
#	92601
#	101285
#	112846
#	126397
#	144512
#	148095
#	161960
#	178088
#	184401
#	198306
#	214776
#	226055
#	237800
#	247146
#	259476
#	272052
#	281147
#	295368
#	304909
#	317265
#
# Disc length: 4378 seconds
#
# Revision: 0
# Processed by: cddbd v1.4PL0 Copyright (c) Steve Scherf et al.
# Submitted via: EasyCDDAExtractor 4.6.9.1
#
DISCID=8211181c
DTITLE=DJ Moto - Black Label (Limited)
DYEAR=2002
DGENRE=R&B
TTITLE0=DJ Moto - Introduction
TTITLE1=Rayvon - My Bad - DJ Clue (Remix)
TTITLE2=Ashanti feat Ja Rule - Always On Time Pt2
TTITLE3=Kelly Price feat Keith Murray - Take It To The Head
TTITLE4=Donell Jones - You Know That I Love You
TTITLE5=Michael Jackson feat JD - Unbreakable
TTITLE6=J Lo feat NAS - I'm Gonna Be Alright (Remix)
TTITLE7=3rd Storee - Get Wit Me
TTITLE8=Mario - Just a Friend 2002
TTITLE9=Brian McKnight feat JD - You Don't Have To Leave (Remix)
TTITLE10=Craig David feat Nate Dogg and Mos Def - 7 Days (Remix)
TTITLE11=Naughty By Nature - Swing Swang
TTITLE12=Pete Rock Break
TTITLE13=Isyss feat Jadakiss - Day and Night
TTITLE14=Christian Milian feat Ja Rule - Getaway
TTITLE15=Latrelle feat Neptunes - House Party
TTITLE16=Usher feat Ludacris - U Don't Have To Call (Remix)
TTITLE17=Nate Dogg feat JD - Your Woman Has Just Been Sighted
TTITLE18=Case feat LL Cool J and Jay Z - Crooked Letter
TTITLE19=Michael Jackson feat Eve - Butterflies (Remix)
TTITLE20=Warren Stacey - My Girl, My Girl (Remix)
TTITLE21=Her Sanity feat The Lox - Xclusive
TTITLE22=Craig David - Walking Away (Remix)
TTITLE23=Glenn Lewis feat Kenton Nix - Dont You Forget It (Remix)
TTITLE24=Donell JOnes feat P Duddy - Outta Of My Head (Remix)
TTITLE25=Truth Hurts feat Rakim - Addictive
TTITLE26=Brandy - Full Moon
TTITLE27=Ashanti feat Notorious BIG - Unfoolish (Remix)
EXTD=
EXTT0=
EXTT1=
EXTT2=
EXTT3=
EXTT4=
EXTT5=
EXTT6=
EXTT7=
EXTT8=
EXTT9=
EXTT10=
EXTT11=
EXTT12=
EXTT13=
EXTT14=
EXTT15=
EXTT16=
EXTT17=
EXTT18=
EXTT19=
EXTT20=
EXTT21=
EXTT22=
EXTT23=
EXTT24=
EXTT25=
EXTT26=
EXTT27=
PLAYORDER=
